<svg width="15" height="15" viewBox="0 0 15 15" fill="none" xmlns="http://www.w3.org/2000/svg">
<path d="M1.71797 13.5633C1.87852 13.6875 2.34141 12.8871 4.08516 12.7805C5.95195 12.6656 8.01797 14.1504 10.848 14.1504C13.357 14.1504 14.6566 12.9223 14.5676 12.7266C14.5078 12.5965 13.5176 12.3574 12.3785 11.7657C11.0086 11.0543 9.56602 10.3418 8.46328 8.73987C7.75664 7.71448 7.25273 6.53323 7.94766 5.60745C8.64141 4.68166 10.4039 5.1094 10.4039 5.1094L8.00156 2.51135L3.42773 3.75823L1.11328 9.56018L1.36289 12.5145L1.71797 13.5633V13.5633Z" fill="url(#paint0_radial_22_2)"/>
<path d="M6.94448 4.23166C6.94448 4.23166 7.50347 4.40979 8.2523 4.80002C9.498 5.45041 10.2527 6.47346 11.0226 6.53674C11.8218 6.6012 12.2308 6.14065 12.0562 5.17971C11.8933 4.28323 10.5703 3.23088 10.5703 3.23088C10.5703 3.23088 11.7785 3.45823 11.7785 2.76565C11.7785 2.05432 11.1269 1.71213 10.1015 1.3594C9.41831 1.12502 7.58081 0.604711 5.11753 1.53752C4.05816 1.93831 2.76441 2.67893 1.78237 4.09807C0.498 5.95432 0.237844 8.36838 0.481594 10.2012C0.776906 12.4149 1.698 13.5563 1.72027 13.5656C1.74253 13.575 1.86323 10.9629 2.89331 9.82971C3.77105 8.86409 4.6687 9.26018 5.73511 9.20745C6.99253 9.14534 7.55386 7.8469 6.59409 6.85666C5.77027 6.00588 4.40503 6.08206 4.40503 6.08206C4.40503 6.08206 4.85737 5.90159 5.71636 5.82424C6.70308 5.73401 6.89761 5.16096 6.96792 4.94651C7.12378 4.47307 6.94448 4.23166 6.94448 4.23166V4.23166Z" fill="#1B6DA4"/>
<path d="M4.47066 4.2539C4.40504 3.86718 5.5441 3.51796 6.73707 3.70546C8.59332 3.99726 10.0629 5.69062 10.6863 5.93789C11.605 6.30351 11.9285 5.55234 11.4679 4.73906C10.9933 3.89882 9.73707 3.18398 9.78395 2.90625C9.86832 2.41289 11.155 3.16406 11.2336 2.61562C11.2863 2.25234 10.3254 1.72968 9.41246 1.49648C8.6777 1.30898 7.13434 1.07812 5.00152 2.00742C2.22887 3.21796 1.03004 5.62617 0.831992 8.14921C0.644492 10.5422 1.55855 12.3258 1.55855 12.3258C1.55855 12.3258 1.62066 10.5398 2.51598 9.55664C3.16988 8.83945 4.00895 8.56992 4.91949 8.74335C6.43824 9.03398 7.10035 7.93593 6.37027 7.14257C5.89215 6.62343 5.27926 6.46171 4.64527 6.44062C3.54957 6.40546 2.96012 6.77226 2.92848 6.64804C2.8816 6.45937 3.47574 6.02226 4.22926 5.7082C5.22066 5.2957 6.41715 5.57812 6.60465 4.74843C6.69605 4.34414 6.46754 4.12265 5.81363 4.0746C4.98746 4.01484 4.47535 4.28203 4.47066 4.2539V4.2539Z" fill="white"/>
<defs>
<radialGradient id="paint0_radial_22_2" cx="0" cy="0" r="1" gradientUnits="userSpaceOnUse" gradientTransform="translate(7.01379 -0.164624) scale(13.325)">
<stop offset="0.423" stop-color="#45D6F0"/>
<stop offset="0.518" stop-color="#41CDE9"/>
<stop offset="0.674" stop-color="#37B4D7"/>
<stop offset="0.87" stop-color="#278BBA"/>
<stop offset="1" stop-color="#1B6DA4"/>
</radialGradient>
</defs>
</svg>
