<svg width="1919" height="768" viewBox="0 0 1919 768" fill="none" xmlns="http://www.w3.org/2000/svg">
<path d="M1290.4 569.846V674.422C1290.4 723.069 1319.37 762.481 1276.89 762.481H653.556C611.048 762.481 576.611 723.069 576.611 674.422V569.846H1290.37" fill="#4490B3"/>
<path d="M631.36 538.608C682.575 476.575 740.045 451.988 795.39 459.976C824.702 464.197 853.611 484.455 882.52 497.313C915.95 512.197 945.945 498.38 979.084 488.066C1008.04 479.046 1038.03 482.404 1066.67 497.097C1100.15 514.26 1131.36 544.977 1165.86 539.28C1195.68 534.374 1224.88 511.13 1254.72 504.449C1284.97 497.613 1315.36 526.878 1344.7 544.629V607.346C1343.92 606.982 1343.15 606.578 1342.4 606.134C1312.73 589.091 1285.23 564.635 1254.63 574.326C1224.94 583.717 1196.16 604.875 1166.15 606.974C1139.12 608.809 1112.67 590.194 1086.64 572.323C1055.62 551.082 1024.96 546.092 993.264 554.104C966.213 560.941 941.199 575.442 913.79 571.1C884.68 566.482 855.961 546.068 827.209 533.559C769.402 508.395 705.619 534.65 652.446 604.407C645.943 612.971 638.064 611.232 631.338 603.555V538.608" fill="#56A4C7"/>
<path d="M630.957 577.672C682.239 515.628 739.699 491.052 794.987 499.04C824.321 503.262 853.208 523.508 882.161 536.377C915.547 551.286 945.564 537.445 978.715 527.118C1007.65 518.098 1037.63 521.457 1066.29 536.161C1099.73 553.325 1130.99 584.041 1165.43 578.356C1195.28 573.427 1224.47 550.206 1254.28 543.49C1284.58 536.689 1314.93 565.942 1344.38 583.717V646.434C1343.58 646.074 1342.81 645.666 1342.05 645.211C1312.37 628.203 1284.91 603.759 1254.3 613.414C1224.61 622.782 1195.81 643.951 1165.8 646.062C1138.75 647.897 1112.35 629.271 1086.29 611.388C1055.29 590.146 1024.66 585.157 992.94 593.205C965.866 600.041 940.897 614.53 913.488 610.176C884.355 605.534 855.67 585.121 826.884 572.635C769.066 547.472 705.317 573.75 652.144 643.507C645.641 652.047 637.728 650.308 630.979 642.632V577.672" fill="#56A4C7"/>
<path d="M631.36 614.41C682.575 552.365 740.046 527.766 795.39 535.801C824.702 540.035 853.611 560.257 882.52 573.127C915.95 588.011 945.945 574.206 979.084 563.855C1008.04 554.824 1038.03 558.206 1066.67 572.899C1100.15 590.062 1131.36 620.767 1165.86 615.118C1195.68 610.176 1224.88 586.92 1254.72 580.215C1284.97 573.415 1315.36 602.716 1344.7 620.431V683.147C1343.91 682.795 1343.14 682.386 1342.4 681.924C1312.73 664.905 1285.23 640.473 1254.63 650.128C1224.94 659.483 1196.16 680.713 1166.15 682.776C1139.12 684.623 1112.67 665.996 1086.64 648.101C1055.62 626.86 1024.96 621.894 993.264 629.918C966.213 636.755 941.199 651.255 913.79 646.89C884.68 642.296 855.961 621.858 827.209 609.336C769.391 584.185 705.608 610.452 652.435 680.221C645.932 688.761 638.053 687.045 631.326 679.369V614.41" fill="#66B1DE"/>
<g clip-path="url(#clip0_11_59)">
<path fill-rule="evenodd" clip-rule="evenodd" d="M204.59 541.408C205.966 542.187 207.298 543.039 208.608 543.891C212.156 544.55 215.737 545.366 219.262 546.385C237.047 551.507 254.797 556.616 272.771 560.802C273.969 560.958 275.166 561.198 276.398 561.366C280.337 561.882 284.198 562.517 287.959 563.285C303.418 559.991 319.178 558.607 334.932 559.159C364.882 560.346 394.82 561.462 424.3 572.856C443.886 580.388 463.472 588.016 483.069 595.633C489.213 593.066 495.391 590.727 501.469 588.34L520.786 586.229C520.506 585.977 520.294 585.642 519.98 585.39C517.608 583.387 515.459 580.484 513.287 577.798C501.939 563.849 491.015 548.784 483.382 527.711C476.683 509.336 473.91 489.586 475.268 469.912C476.757 448.658 482.375 431.135 490.433 416.119C506.035 387.081 525.05 370.362 547.244 366.008C556.309 364.221 565.241 366.008 573.467 374.044C585.274 385.606 589.695 405.06 589.986 427.873C590.132 440.395 588.968 452.952 588.375 465.822C600.607 451.921 612.012 435.969 619.611 412.88C628.106 387.093 628.218 361.174 618.906 335.903C612.247 317.708 602.835 305.115 592.269 295.292C568.464 273.139 542.756 266.062 516.376 264.383C498.57 263.244 480.987 266.35 463.505 271.783C442.043 278.476 421.48 288.119 402.33 300.473C341.893 339.453 289.112 401.426 241.255 477.828C228.335 498.549 216.105 519.756 204.59 541.408V541.408ZM542.7 352.119C542.879 351.903 543.058 351.663 543.282 351.423C546.931 351.471 549.717 351.531 549.717 351.531L555.168 354.482C550.915 353.69 546.74 353.031 542.7 352.119V352.119ZM476.052 283.466C481.043 281.93 486.035 279.975 491.071 278.92C502.766 276.496 514.78 276.439 526.494 278.752C536.063 280.575 545.487 283.094 554.72 286.92H516.981L513.231 290.434C509.982 289.139 506.613 288.222 503.181 287.699C494.642 286.332 486.046 286.032 477.484 285.253C477.025 285.229 476.611 285.109 476.13 285.037C476.096 284.533 476.096 283.993 476.052 283.466" fill="#4E94B5"/>
<path fill-rule="evenodd" clip-rule="evenodd" d="M602.029 420.269C602.476 412.545 603.473 404.245 603.327 396.161C603.07 379.537 597.574 369.918 589.18 365.936C583.775 363.369 578.055 362.434 572.795 360.839C573.635 359.939 575.011 358.644 576.276 357.061C579.13 353.462 579.052 349.78 575.963 347.645C572.303 345.055 568.363 344.635 564.39 344.971C562.364 345.186 560.361 345.462 558.246 345.714C559.98 343.759 561.771 342.044 563.349 339.993C567.166 335.1 567.121 330.074 563.349 326.02C559.499 321.894 555.19 320.095 550.713 319.028C545.464 317.744 540.159 317.145 534.888 316.245C534.597 316.209 534.317 316.101 534.06 316.029V315.046C537.216 314.338 540.372 313.367 543.551 312.971C550.894 312.053 558.332 312.606 565.487 314.602C580.115 318.584 594.183 325.121 606.159 340.461C609.359 344.611 612.269 350.02 614.564 355.813C618.682 366.044 618.75 377.75 615.739 389.912C613.142 400.395 605.845 416.239 602.029 420.317" fill="#F1F1F1"/>
<path d="M713.758 570.014V674.589C713.758 723.237 679.332 762.649 636.847 762.649H76.9113C34.4041 762.649 -0.0336914 723.237 -0.0336914 674.589V570.014H713.725" fill="#4490B3"/>
<path fill-rule="evenodd" clip-rule="evenodd" d="M7.35316 596.736C17.7505 589.072 28.1815 581.456 38.646 573.995C45.7305 568.958 53.218 565.576 60.5487 561.45C100.157 539.249 140.795 522.925 183.47 518.284C223.627 513.954 263.739 509.54 304.792 518.847C346.381 528.274 387.993 537.942 429.616 547.561C435.436 548.88 441.244 550.307 447.076 551.675C447.176 551.051 447.087 550.415 447.243 549.816C444.736 548.053 442.196 546.325 439.577 544.478C443.897 534.835 442.778 522.062 434.283 516.628C430.847 514.409 427.568 510.979 424.266 507.861C406.986 491.489 390.131 473.558 376.79 446.967C364.986 423.71 358.281 397.878 357.181 371.429C355.961 342.776 360.796 318.272 369.258 296.671C385.631 254.836 408.486 228.725 437.462 218.53C449.269 214.404 461.491 215.004 473.656 224.107C491.15 237.157 500.014 262.236 503.819 292.617C505.923 309.277 506.281 326.26 507.423 343.579C521.648 322.59 534.429 299.058 541.111 266.734C548.509 230.632 544.759 196.089 528.52 164.162C516.902 141.265 502.409 126.309 486.83 115.31C451.709 90.4466 416.398 86.1167 380.908 89.0912C356.991 91.1182 333.969 98.7584 311.507 109.481C283.841 122.647 257.877 139.587 234.26 159.88C159.531 223.832 98.5008 316.881 46.2677 428.377C29.6915 463.964 14.4654 500.256 0.62677 537.162L7.40912 596.712L7.35316 596.736ZM330.063 122.53C336.51 119.484 342.844 115.874 349.392 113.475C364.585 107.949 380.603 105.492 396.633 106.231C429.146 107.562 461.48 114.578 492.627 141.409C501.043 148.629 509.146 158.704 516.208 169.883C528.699 189.589 533.31 214.476 531.407 241.703C529.773 265.259 520.215 302.44 513.534 312.971C511.676 296.359 510.702 278.236 507.456 261.037C500.696 225.858 485.375 208.107 466.057 203.778C453.623 200.983 441.177 201.715 429.347 200.875C430.791 198.56 433.276 195.178 435.357 191.148C440.058 182.14 438.469 174.356 431.194 171.286C422.431 167.58 413.936 168.575 405.564 171.286C401.39 172.689 397.226 174.272 392.839 175.832C395.872 170.806 398.928 166.332 401.569 161.151C407.825 148.953 405.867 138.267 396.342 131.502C386.65 124.653 376.678 122.89 366.93 122.746C355.312 122.602 343.796 123.934 332.246 124.617C331.641 124.641 331.026 124.569 330.388 124.569C330.287 123.91 330.186 123.214 330.063 122.53Z" fill="#66B1DE"/>
<path fill-rule="evenodd" clip-rule="evenodd" d="M512.974 313.043C511.071 296.431 510.131 278.308 506.841 261.109C500.092 225.93 484.793 208.179 465.442 203.85C453.007 201.055 440.562 201.787 428.765 200.947C430.232 198.632 432.716 195.25 434.798 191.22C439.476 182.212 437.898 174.428 430.59 171.358C421.882 167.652 413.343 168.647 404.96 171.358C400.785 172.761 396.622 174.344 392.246 175.904C395.257 170.878 398.346 166.404 400.953 161.223C407.21 149.025 405.273 138.338 395.76 131.574C386.034 124.725 376.141 122.962 366.269 122.818C354.719 122.674 343.18 124.006 331.619 124.689C331.015 124.713 330.365 124.641 329.783 124.641C329.705 123.958 329.56 123.262 329.425 122.578C335.894 119.532 342.251 115.922 348.799 113.523C363.988 107.997 380.003 105.54 396.029 106.279C428.53 107.61 460.875 114.626 492.023 141.457C500.372 148.677 508.52 158.752 515.571 169.931C528.083 189.637 532.672 214.524 530.803 241.751C529.202 265.331 519.611 302.512 512.974 313.043Z" fill="#F1F1F1"/>
<path d="M0.582015 534.091C51.7966 472.059 109.267 447.471 164.612 455.459C193.924 459.681 222.833 479.939 251.742 492.796C285.172 507.681 315.167 493.864 348.306 483.549C377.26 474.529 407.254 477.888 435.895 492.58C469.37 509.744 500.584 540.46 535.078 534.763C564.905 529.858 594.105 506.613 623.943 499.933C654.195 493.096 684.581 522.361 713.926 540.112V602.829C713.14 602.466 712.37 602.062 711.621 601.618C681.951 584.574 654.452 560.118 623.853 569.809C594.161 579.201 565.386 600.358 535.369 602.457C508.341 604.292 481.894 585.678 455.861 567.807C424.837 546.565 394.182 541.576 362.486 549.588C335.435 556.424 310.421 570.925 283.012 566.583C253.902 561.965 225.183 541.552 196.431 529.042C138.624 503.879 74.8409 530.133 21.6677 599.89C15.1652 608.454 7.28602 606.715 0.559631 599.039V534.091" fill="#56A4C7"/>
<path d="M0.179077 573.156C51.4608 511.111 108.921 486.535 164.209 494.523C193.543 498.745 222.43 518.991 251.383 531.861C284.769 546.769 314.786 532.928 347.937 522.601C376.868 513.582 406.851 516.94 435.514 531.645C468.956 548.808 500.215 579.525 534.653 573.839C564.502 568.91 593.691 545.69 623.506 538.973C653.803 532.172 684.156 561.426 713.602 579.201L711.274 613.635C711.274 589.998 711.274 589.915 711.274 613.635C681.593 596.628 654.127 599.243 623.517 608.898C593.836 618.265 565.028 639.434 535.022 641.545C507.971 643.38 481.569 624.754 455.514 606.871C424.512 585.63 393.88 580.64 362.162 588.688C335.088 595.525 310.119 610.013 282.71 605.66C253.577 601.018 224.892 580.604 196.106 568.118C138.288 542.955 74.5387 569.234 21.3655 638.991C14.863 647.53 6.95024 645.791 0.201461 638.115V573.156" fill="#56A4C7"/>
<path d="M0.582038 609.893C51.7966 547.849 109.268 523.249 164.612 531.285C193.924 535.519 222.833 555.741 251.742 568.61C285.172 583.495 315.167 569.69 348.306 559.339C377.26 550.307 407.254 553.69 435.895 568.382C469.37 585.546 500.584 616.25 535.078 610.601C564.905 605.66 594.105 582.403 623.943 575.699C654.195 568.898 690.159 559.457 714.577 547.481V621.049C717.533 564.69 715.227 602.817 714.577 621.049C675.227 654.696 654.452 635.956 623.853 645.612C594.161 654.967 565.386 676.196 535.369 678.259C508.34 680.106 481.894 661.48 455.861 643.585C424.837 622.343 394.182 617.378 362.486 625.402C335.435 632.238 310.421 646.739 283.012 642.373C253.902 637.779 225.183 617.342 196.431 604.82C138.613 579.669 74.8297 605.935 21.6566 675.704C15.154 684.244 7.27485 682.529 0.548462 674.853V609.893" fill="#66B1DE"/>
</g>
<g clip-path="url(#clip1_11_59)">
<path fill-rule="evenodd" clip-rule="evenodd" d="M1713.88 541.408C1712.5 542.187 1711.17 543.039 1709.86 543.891C1706.31 544.55 1702.73 545.366 1699.2 546.385C1681.42 551.507 1663.67 556.616 1645.69 560.802C1644.5 560.958 1643.3 561.198 1642.07 561.366C1638.13 561.882 1634.27 562.517 1630.51 563.285C1615.05 559.991 1599.29 558.607 1583.53 559.159C1553.58 560.346 1523.64 561.462 1494.17 572.856C1474.58 580.388 1454.99 588.016 1435.4 595.633C1429.25 593.066 1423.07 590.727 1417 588.34L1397.68 586.229C1397.96 585.977 1398.17 585.642 1398.48 585.39C1400.86 583.387 1403.01 580.484 1405.18 577.798C1416.53 563.849 1427.45 548.784 1435.08 527.711C1441.78 509.336 1444.56 489.586 1443.2 469.912C1441.71 448.658 1436.09 431.135 1428.03 416.119C1412.43 387.081 1393.41 370.362 1371.22 366.008C1362.16 364.221 1353.22 366.008 1345 374.044C1333.19 385.606 1328.77 405.06 1328.48 427.873C1328.33 440.395 1329.5 452.952 1330.09 465.822C1317.86 451.921 1306.45 435.969 1298.85 412.88C1290.36 387.093 1290.25 361.174 1299.56 335.903C1306.22 317.708 1315.63 305.115 1326.2 295.292C1350 273.139 1375.71 266.062 1402.09 264.383C1419.9 263.244 1437.48 266.35 1454.96 271.783C1476.42 278.476 1496.98 288.119 1516.14 300.473C1576.57 339.453 1629.35 401.426 1677.21 477.828C1690.13 498.549 1702.36 519.756 1713.88 541.408V541.408ZM1375.77 352.119C1375.59 351.903 1375.41 351.663 1375.18 351.423C1371.53 351.471 1368.75 351.531 1368.75 351.531L1363.3 354.482C1367.55 353.69 1371.72 353.031 1375.77 352.119V352.119ZM1442.41 283.466C1437.42 281.93 1432.43 279.975 1427.39 278.92C1415.7 276.496 1403.69 276.439 1391.97 278.752C1382.4 280.575 1372.98 283.094 1363.74 286.92H1401.48L1405.23 290.434C1408.48 289.139 1411.85 288.222 1415.28 287.699C1423.82 286.332 1432.42 286.032 1440.98 285.253C1441.44 285.229 1441.85 285.109 1442.34 285.037C1442.37 284.533 1442.37 283.993 1442.41 283.466" fill="#4E94B5"/>
<path fill-rule="evenodd" clip-rule="evenodd" d="M1316.44 420.269C1315.99 412.545 1314.99 404.245 1315.14 396.161C1315.4 379.537 1320.89 369.918 1329.28 365.936C1334.69 363.369 1340.41 362.434 1345.67 360.839C1344.83 359.939 1343.45 358.644 1342.19 357.061C1339.34 353.462 1339.41 349.78 1342.5 347.645C1346.16 345.055 1350.1 344.635 1354.08 344.971C1356.1 345.186 1358.1 345.462 1360.22 345.714C1358.48 343.759 1356.69 342.044 1355.12 339.993C1351.3 335.1 1351.34 330.074 1355.12 326.02C1358.97 321.894 1363.27 320.095 1367.75 319.028C1373 317.744 1378.31 317.145 1383.58 316.245C1383.87 316.209 1384.15 316.101 1384.41 316.029V315.046C1381.25 314.338 1378.09 313.367 1374.91 312.971C1367.57 312.053 1360.13 312.606 1352.98 314.602C1338.35 318.584 1324.28 325.121 1312.31 340.461C1309.11 344.611 1306.2 350.02 1303.9 355.813C1299.78 366.044 1299.72 377.75 1302.73 389.912C1305.32 400.395 1312.62 416.239 1316.44 420.317" fill="#F1F1F1"/>
<path d="M1204.71 570.014V674.589C1204.71 723.237 1239.13 762.649 1281.62 762.649H1841.55C1884.06 762.649 1918.5 723.237 1918.5 674.589V570.014H1204.74" fill="#4490B3"/>
<path fill-rule="evenodd" clip-rule="evenodd" d="M1911.11 596.736C1900.71 589.072 1890.28 581.456 1879.82 573.995C1872.73 568.958 1865.25 565.576 1857.92 561.45C1818.31 539.249 1777.67 522.925 1734.99 518.284C1694.84 513.954 1654.73 509.54 1613.67 518.847C1572.08 528.274 1530.47 537.942 1488.85 547.561C1483.03 548.88 1477.22 550.307 1471.39 551.675C1471.29 551.051 1471.38 550.415 1471.22 549.816C1473.73 548.053 1476.27 546.325 1478.89 544.478C1474.57 534.835 1475.69 522.062 1484.18 516.628C1487.62 514.409 1490.9 510.979 1494.2 507.861C1511.48 491.489 1528.33 473.558 1541.68 446.967C1553.48 423.71 1560.18 397.878 1561.28 371.429C1562.5 342.776 1557.67 318.272 1549.21 296.671C1532.83 254.836 1509.98 228.725 1481 218.53C1469.2 214.404 1456.97 215.004 1444.81 224.107C1427.32 237.157 1418.45 262.236 1414.65 292.617C1412.54 309.277 1412.18 326.26 1411.04 343.579C1396.82 322.59 1384.04 299.058 1377.35 266.734C1369.96 230.632 1373.71 196.089 1389.95 164.162C1401.56 141.265 1416.06 126.309 1431.64 115.31C1466.76 90.4466 1502.07 86.1167 1537.56 89.0912C1561.47 91.1182 1584.5 98.7584 1606.96 109.481C1634.62 122.647 1660.59 139.587 1684.21 159.88C1758.93 223.832 1819.96 316.881 1872.2 428.377C1888.77 463.964 1904 500.256 1917.84 537.162L1911.06 596.712L1911.11 596.736ZM1588.4 122.53C1581.96 119.484 1575.62 115.874 1569.07 113.475C1553.88 107.949 1537.86 105.492 1521.83 106.231C1489.32 107.562 1456.99 114.578 1425.84 141.409C1417.42 148.629 1409.32 158.704 1402.26 169.883C1389.77 189.589 1385.16 214.476 1387.06 241.703C1388.69 265.259 1398.25 302.44 1404.93 312.971C1406.79 296.359 1407.76 278.236 1411.01 261.037C1417.77 225.858 1433.09 208.107 1452.41 203.778C1464.84 200.983 1477.29 201.715 1489.12 200.875C1487.67 198.56 1485.19 195.178 1483.11 191.148C1478.41 182.14 1480 174.356 1487.27 171.286C1496.03 167.58 1504.53 168.575 1512.9 171.286C1517.08 172.689 1521.24 174.272 1525.63 175.832C1522.59 170.806 1519.54 166.332 1516.9 161.151C1510.64 148.953 1512.6 138.267 1522.12 131.502C1531.82 124.653 1541.79 122.89 1551.54 122.746C1563.15 122.602 1574.67 123.934 1586.22 124.617C1586.82 124.641 1587.44 124.569 1588.08 124.569C1588.18 123.91 1588.28 123.214 1588.4 122.53Z" fill="#66B1DE"/>
<path fill-rule="evenodd" clip-rule="evenodd" d="M1405.49 313.043C1407.39 296.431 1408.33 278.308 1411.62 261.109C1418.37 225.93 1433.67 208.179 1453.02 203.85C1465.46 201.055 1477.9 201.787 1489.7 200.947C1488.23 198.632 1485.75 195.25 1483.67 191.22C1478.99 182.212 1480.57 174.428 1487.88 171.358C1496.58 167.652 1505.12 168.647 1513.51 171.358C1517.68 172.761 1521.84 174.344 1526.22 175.904C1523.21 170.878 1520.12 166.404 1517.51 161.223C1511.26 149.025 1513.19 138.338 1522.7 131.574C1532.43 124.725 1542.32 122.962 1552.2 122.818C1563.75 122.674 1575.28 124.006 1586.85 124.689C1587.45 124.713 1588.1 124.641 1588.68 124.641C1588.76 123.958 1588.91 123.262 1589.04 122.578C1582.57 119.532 1576.21 115.922 1569.67 113.523C1554.48 107.997 1538.46 105.54 1522.44 106.279C1489.93 107.61 1457.59 114.626 1426.44 141.457C1418.09 148.677 1409.95 158.752 1402.89 169.931C1390.38 189.637 1385.79 214.524 1387.66 241.751C1389.26 265.331 1398.85 302.512 1405.49 313.043Z" fill="#F1F1F1"/>
<path d="M1917.88 534.091C1866.67 472.059 1809.2 447.471 1753.85 455.459C1724.54 459.681 1695.63 479.939 1666.72 492.796C1633.29 507.681 1603.3 493.864 1570.16 483.549C1541.21 474.529 1511.21 477.888 1482.57 492.58C1449.1 509.744 1417.88 540.46 1383.39 534.763C1353.56 529.858 1324.36 506.613 1294.52 499.933C1264.27 493.096 1233.88 522.361 1204.54 540.112V602.829C1205.33 602.466 1206.09 602.062 1206.84 601.618C1236.51 584.574 1264.01 560.118 1294.61 569.809C1324.3 579.201 1353.08 600.358 1383.1 602.457C1410.12 604.292 1436.57 585.678 1462.6 567.807C1493.63 546.565 1524.28 541.576 1555.98 549.588C1583.03 556.424 1608.04 570.925 1635.45 566.583C1664.56 561.965 1693.28 541.552 1722.03 529.042C1779.84 503.879 1843.62 530.133 1896.8 599.89C1903.3 608.454 1911.18 606.715 1917.91 599.039V534.091" fill="#56A4C7"/>
<path d="M1918.29 573.156C1867 511.111 1809.54 486.535 1754.26 494.523C1724.92 498.745 1696.04 518.991 1667.08 531.861C1633.7 546.769 1603.68 532.928 1570.53 522.601C1541.6 513.582 1511.61 516.94 1482.95 531.645C1449.51 548.808 1418.25 579.525 1383.81 573.84C1353.96 568.91 1324.77 545.69 1294.96 538.973C1264.66 532.172 1234.31 561.426 1204.86 579.201V641.917C1205.66 641.558 1206.44 641.149 1207.19 640.694C1236.87 623.686 1264.34 599.243 1294.95 608.898C1324.63 618.265 1353.44 639.434 1383.44 641.545C1410.49 643.38 1436.9 624.754 1462.95 606.871C1493.95 585.63 1524.59 580.64 1556.3 588.688C1583.38 595.525 1608.35 610.013 1635.76 605.66C1664.89 601.018 1693.57 580.604 1722.36 568.118C1780.18 542.955 1843.93 569.234 1897.1 638.991C1903.6 647.53 1911.51 645.791 1918.26 638.115V573.156" fill="#56A4C7"/>
<path d="M1917.88 609.893C1866.67 547.849 1809.2 523.249 1753.85 531.285C1724.54 535.519 1695.63 555.741 1666.72 568.61C1633.29 583.495 1603.3 569.69 1570.16 559.339C1541.21 550.307 1511.21 553.69 1482.57 568.382C1449.1 585.546 1417.88 616.25 1383.39 610.601C1353.56 605.66 1324.36 582.403 1294.52 575.699C1264.27 568.898 1233.88 583.374 1204.54 601.089V671.805C1202.23 656.507 1204.54 626.769 1204.54 671.805C1240.96 638.728 1264.01 635.956 1294.61 645.612C1324.3 654.967 1353.08 676.196 1383.1 678.259C1410.12 680.106 1436.57 661.48 1462.6 643.585C1493.63 622.343 1524.28 617.378 1555.98 625.402C1583.03 632.238 1608.04 646.739 1635.45 642.373C1664.56 637.779 1693.28 617.342 1722.03 604.82C1779.85 579.669 1843.64 605.935 1896.81 675.704C1903.31 684.244 1911.19 682.529 1917.92 674.853V609.893" fill="#66B1DE"/>
</g>
<defs>
<clipPath id="clip0_11_59">
<rect width="716.288" height="767.614" fill="white"/>
</clipPath>
<clipPath id="clip1_11_59">
<rect width="716.288" height="767.614" fill="white" transform="matrix(-1 0 0 1 1918.47 0)"/>
</clipPath>
</defs>
</svg>
